{"title":"The Legend of Korra S02E13 Darkness Falls (1920x1080) [Phr0stY].","uid":9217646,"size":1003551644,"categoryP":"video","categoryS":"hd___tv_shows","magnet":"?xt=urn:btih:12a05c077b6e266ea3f674f3bd4068a2d8224b87&amp;dn=The+Legend+of+Korra+S02E13+Darkness+Falls+%281920x1080%29+%5BPhr0stY%5D.&amp;tr=udp%3A%2F%2Ftracker.openbittorrent.com%3A80&amp;tr=udp%3A%2F%2Fopen.demonii.com%3A1337&amp;tr=udp%3A%2F%2Ftracker.coppersurfer.tk%3A6969&amp;tr=udp%3A%2F%2Fexodus.desync.com%3A6969","seeders":1,"leechers":0,"uploader":"frostyon420","files":-1,"time":1384885559,"description":"Please Seed :) SUPPORT THE SMALL GUYS TORRENTS, ALWAYS HD never RE-ENCODED! over 400 torrents and counting;)\n\nJoin me on the NEW Superbay for updates on my torrents or to comment if i need to fix something :)\n\nALSO!!!!! if u have a show request, i might consider uploading it if i can access the content online.\n\nPS: my reputation has been reset so if you guys can get me back up. sign up for the new superbay\n &lt;a href=&quot;\nhttps://forum.suprbay.org/showthread.php?tid=369&quot; rel=&quot;nofollow&quot; target=&quot;_NEW&quot;&gt;\nhttps://forum.suprbay.org/showthread.php?tid=369&lt;/a&gt;\n\nNOW Seedbox supported!!! :)\n\nIF YOU HAVE ANY HOT NEW ITUNES CONTENT AND YOU WANT TO CONTRIBUTE TO TPB PLEASE PM ME ON SUPERBAY...\nFREE YOUR VIDEOS AND REMOVE YOUR DRM!\n\n[Itunes-rip]\n\nComplete name                            : H:TV ShowsAnimeThe Legend Of KorraBook 21080pThe Legend of Korra S02E13 Darkness Falls (1920x1080) [Phr0stY].mkv\nFormat                                   : Matroska\nFormat version                           : Version 2\nFile size                                : 957 MiB\nDuration                                 : 23mn 52s\nOverall bit rate                         : 5 604 Kbps\nWriting application                      : Lavf54.59.106\nWriting library                          : Lavf54.59.106\n\nVideo\nID                                       : 1\nFormat                                   : AVC\nFormat/Info                              : Advanced Video Codec\nFormat profile                           : &lt;a class=&quot;__cf_email__&quot; href=&quot;/cdn-cgi/l/email-protection&quot; data-cfemail=&quot;a0e8c9c7c8e0ec948e90&quot;&gt;[email&amp;#160;protected]&lt;/a&gt;&lt;script cf-hash='f9e31' type=&quot;text/javascript&quot;&gt;\n/* &lt;![CDATA[ */!function(){try{var t=&quot;currentScript&quot;in document?document.currentScript:function(){for(var t=document.getElementsByTagName(&quot;script&quot;),e=t.length;e--;)if(t[e].getAttribute(&quot;cf-hash&quot;))return t[e]}();if(t&amp;&amp;t.previousSibling){var e,r,n,i,c=t.previousSibling,a=c.getAttribute(&quot;data-cfemail&quot;);if(a){for(e=&quot;&quot;,r=parseInt(a.substr(0,2),16),n=2;a.length-n;n+=2)i=parseInt(a.substr(n,2),16)^r,e+=String.fromCharCode(i);e=document.createTextNode(e),c.parentNode.replaceChild(e,c)}}}catch(u){}}();/* ]]&gt; */&lt;/script&gt;\nFormat settings, CABAC                   : Yes\nFormat settings, ReFrames                : 4 frames\nCodec ID                                 : V_MPEG4/ISO/AVC\nDuration                                 : 23mn 52s\nBit rate                                 : 5 109 Kbps\nWidth                                    : 1 912 pixels\nHeight                                   : 1 072 pixels\nDisplay aspect ratio                     : 16:9\nFrame rate mode                          : Constant\nFrame rate                               : 23.976 fps\nColor space                              : YUV\nChroma subsampling                       : 4:2:0\nBit depth                                : 8 bits\nScan type                                : Progressive\nBits/(Pixel*Frame)                       : 0.104\nStream size                              : 872 MiB (91%)\nDefault                                  : Yes\nForced                                   : No\nColor primaries                          : BT.709\nTransfer characteristics                 : BT.709\nMatrix coefficients                      : BT.709\n\nAudio\nID                                       : 2\nFormat                                   : AC-3\nFormat/Info                              : Audio Coding 3\nMode extension                           : CM (complete main)\nFormat settings, Endianness              : Big\nCodec ID                                 : A_AC3\nDuration                                 : 23mn 52s\nBit rate mode                            : Constant\nBit rate                                 : 384 Kbps\nChannel count                            : 2 channels\nOriginal Channel count                   : 6 channels\nChannel positions                        : Front: L C R, Side: L R, LFE\nSampling rate                            : 48.0 KHz\nBit depth                                : 16 bits\nCompression mode                         : Lossy\nDelay relative to video                  : 1mn 5s\nStream size                              : 65.6 MiB (7%)\nDefault                                  : Yes\nForced                                   : No\n\n","torrent":{"xt":"urn:btih:12a05c077b6e266ea3f674f3bd4068a2d8224b87","amp;dn":"The+Legend+of+Korra+S02E13+Darkness+Falls+%281920x1080%29+%5BPhr0stY%5D.","amp;tr":["udp%3A%2F%2Ftracker.openbittorrent.com%3A80","udp%3A%2F%2Fopen.demonii.com%3A1337","udp%3A%2F%2Ftracker.coppersurfer.tk%3A6969","udp%3A%2F%2Fexodus.desync.com%3A6969"],"infoHash":"12a05c077b6e266ea3f674f3bd4068a2d8224b87","infoHashBuffer":{"type":"Buffer","data":[18,160,92,7,123,110,38,110,163,246,116,243,189,64,104,162,216,34,75,135]},"announce":[],"urlList":[]}}